<mxfile host="app.diagrams.net" modified="2023-10-08T14:01:29.034Z" agent="Mozilla/5.0 (Macintosh; Intel Mac OS X 10_15_7) AppleWebKit/537.36 (KHTML, like Gecko) Chrome/117.0.0.0 Safari/537.36" version="22.0.4" etag="jxCBNQNRXkkj12qMDrNY" type="github">
  <diagram name="Сторінка-1" id="mcNIpvxtmsuzP1XM4r4_">
    <mxGraphModel>
      <root>
        <mxCell id="0" />
        <mxCell id="1" parent="0" />
      </root>
    </mxGraphModel>
  </diagram>
</mxfile>
